# xmcd
#
# Track frame offsets:
#	150
#	15183
#	29772
#	44611
#	59419
#	74022
#	88511
#	102528
#	116279
#	130524
#	145574
#	159551
#	175408
#	190239
#	204077
#	218794
#	233371
#	248456
#
# Disc length: 3510 seconds
#
# Revision: 1
# Processed by: cddbd v1.5.1PL0 Copyright (c) Steve Scherf et al.
# Submitted via: audiograbber 1.83.01
#
DISCID=ed0db412
DTITLE=Μάρκος Βαμβακάρης Νο 4 - Συνθέτες του ρεμπέτικου
DYEAR=1900
DGENRE=
TTITLE0=Ο αραμπατζής
TTITLE1=Μικρός αρραβωνιάστηκα
TTITLE2=Κάντονε Σταύρο κάντονε
TTITLE3=Θέλω μαστούρης να γινώ
TTITLE4=Το 1912
TTITLE5=Καραβοτσακίσματα
TTITLE6=Αλανιάρα από τον Πειραιά
TTITLE7=Θα έρθω να σε ξυπνήσω
TTITLE8=Για σένα υποφέρω
TTITLE9=Μάνα με μαχαιρώσανε
TTITLE10=Ο γρουσούζης
TTITLE11=Αδειασέ μου την γωνιά
TTITLE12=Για σένα μαυρομάτα μου
TTITLE13=Σκληρόκαρδη
TTITLE14=Σαν με ιδης και σου σφυρίξω
TTITLE15=Κάποιο βράδυ με φεγγάρι
TTITLE16=Αρρώστησα στα ξένα μακρυά σου
TTITLE17=Φτώχεια που σέρνεις τον πόνο
EXTD=
EXTT0=
EXTT1=
EXTT2=
EXTT3=
EXTT4=
EXTT5=
EXTT6=
EXTT7=
EXTT8=
EXTT9=
EXTT10=
EXTT11=
EXTT12=
EXTT13=
EXTT14=
EXTT15=
EXTT16=
EXTT17=
PLAYORDER=
